<svg
   width="1280"
   height="1280"
   viewBox="0 0 338.66666 338.66666"
   version="1.1"
   id="svg1"
  >
  <defs
     id="defs1" />
  <g
     id="layer3"
     style="display:inline"
     transform="matrix(1.2339203,0,0,1.2522537,-34.442699,-9.4428187)">
    <g
       id="layer2">
      <g
         id="layer1">
        <path
           id="rect1"
           style="fill:#335cd5;stroke-width:0.291832"
           d="m 143.57714,21.155141 c -57.157504,0 -103.172975,62.115693 -103.172975,139.272799 v 44.12129 c 0,1.06986 0.04146,2.12535 0.05906,3.18928 h 22.839534 c -0.02194,-1.062 -0.05844,-2.11859 -0.05844,-3.18875 v -44.12235 c 0,-60.610235 35.432501,-108.440143 80.332201,-108.440143 h 20.08367 V 21.155141 Z" />
      </g>
      <path
         id="path2"
         style="fill:#3c74fe;stroke-width:0.330334"
         d="m 106.78327,127.50238 v 137.83275 a 65.194602,69.07239 0 0 0 5.72818,-0.43423 V 127.88578 a 65.194602,69.07239 0 0 0 -5.72818,-0.3834 z m -5.45565,0.0808 a 65.194602,69.07239 0 0 0 -61.921262,68.84532 65.194602,69.07239 0 0 0 61.921262,68.84474 z" />
    </g>
  </g>
  <g
     id="g5"
     style="display:inline"
     transform="matrix(1.2339203,0,0,1.2522537,-34.442699,-9.4428187)">
    <g
       id="g4">
      <g
         id="g3">
        <path
           id="path3"
           style="fill:#335cd5;stroke-width:0.291832"
           d="m 183.50637,21.155141 c 57.15751,0 103.17297,62.115693 103.17297,139.272799 v 44.12129 c 0,1.06986 -0.0415,2.12535 -0.0591,3.18928 h -22.83953 c 0.0219,-1.062 0.0585,-2.11859 0.0585,-3.18875 v -44.12235 c 0,-60.610235 -35.4325,-108.440143 -80.33219,-108.440143 H 163.42333 V 21.155141 Z" />
      </g>
      <path
         id="path4"
         style="fill:#3c74fe;stroke-width:0.330334"
         d="m 220.30025,127.50238 v 137.83275 a 65.194602,69.07239 0 0 1 -5.72819,-0.43423 V 127.88578 a 65.194602,69.07239 0 0 1 5.72819,-0.3834 z m 5.45564,0.0808 a 65.194602,69.07239 0 0 1 61.92126,68.84532 65.194602,69.07239 0 0 1 -61.92126,68.84474 z" />
    </g>
  </g>
</svg>
